<?xml version="1.0" encoding="UTF-8"?>
<svg width="45px" height="45px" viewBox="0 0 45 45" version="1.1" xmlns="http://www.w3.org/2000/svg" xmlns:xlink="http://www.w3.org/1999/xlink">
    <title>E810F5BA-D8B3-4362-92FB-B4CCF83941E2@1x</title>
    <g id="Website-&amp;-App" stroke="none" stroke-width="1" fill="none" fill-rule="evenodd">
        <g id="MoonBear-Homepage" transform="translate(-1345.000000, -488.000000)">
            <g id="discord-icon" transform="translate(1345.000000, 488.000000)">
                <circle id="Base" fill="#2D455E" cx="22.5" cy="22.5" r="22.5"></circle>
                <g id="discord" transform="translate(12.000000, 11.000000)" fill="#FFFFFF" fill-rule="nonzero">
                    <path d="M2.509824,20.6194688 L16.3809792,20.6194688 L15.7185024,18.4744448 C15.8167552,18.5600512 21.4016,23.3472 21.4016,23.3472 L21.4016,2.40768 C21.3354496,1.1060736 20.214784,0 18.8256256,0 L2.514688,0.0029184 C1.1265024,0.0029184 -2.5920599e-15,1.1109376 -2.5920599e-15,2.412544 L-2.5920599e-15,18.210816 C-2.5920599e-15,19.5834368 1.1245568,20.6194688 2.509824,20.6194688 L2.509824,20.6194688 Z M5.3474816,6.7629056 C7.130624,5.4651904 8.7834112,5.5274496 8.7834112,5.5274496 L8.9166848,5.6587776 C6.7346944,6.1792256 5.7453568,7.1539712 5.7453568,7.1539712 C5.846528,7.1325696 10.2523392,4.5906432 15.5910656,7.218176 C15.5910656,7.218176 14.5997824,6.3066624 12.5520384,5.7229824 L12.7329792,5.54496 C13.016064,5.5459328 14.514176,5.598464 16.1173504,6.770688 C16.1173504,6.770688 17.9111936,9.835008 17.9111936,13.599744 C17.8518528,13.5277568 16.7983104,15.2204288 14.0871168,15.2787968 C14.0871168,15.2787968 13.6279552,14.7593216 13.3010944,14.3059968 C14.8867584,13.8507264 15.4801664,12.9401856 15.4801664,12.9401856 C12.393472,14.88384 9.6881152,14.5803264 6.4516096,13.2670464 C6.4214528,13.2670464 6.4078336,13.2534272 6.3922688,13.2378624 L6.3922688,13.2320256 C6.376704,13.2174336 6.3630848,13.2028416 6.332928,13.2028416 L6.27456,13.2028416 C6.0761088,13.0724864 5.943808,13.0082816 5.943808,13.0082816 C5.943808,13.0082816 6.5362432,13.9188224 8.0586752,14.3740928 C7.6588544,14.830336 7.2629248,15.3488384 7.2629248,15.3488384 C4.552704,15.2846336 3.5643392,13.5919616 3.5643392,13.5919616 C3.5643392,9.8213888 5.3474816,6.7629056 5.3474816,6.7629056 L5.3474816,6.7629056 Z" id="Shape"></path>
                    <path d="M12.9460224,12.4236288 C13.6376832,12.4236288 14.2009344,11.8399488 14.2009344,11.1200768 C14.2009344,10.4050688 13.6406016,9.8213888 12.9460224,9.8213888 L12.9460224,9.8243072 C12.25728,9.8243072 11.693056,10.4060416 11.6911104,11.1259136 C11.6911104,11.8399488 12.2543616,12.4236288 12.9460224,12.4236288 Z" id="Path"></path>
                    <path d="M8.453632,12.4236288 C9.1452928,12.4236288 9.708544,11.8399488 9.708544,11.1200768 C9.708544,10.4050688 9.149184,9.8213888 8.4575232,9.8213888 L8.453632,9.8243072 C7.7619712,9.8243072 7.19872,10.4060416 7.19872,11.1259136 C7.19872,11.8399488 7.7619712,12.4236288 8.453632,12.4236288 L8.453632,12.4236288 Z" id="Path"></path>
                </g>
            </g>
        </g>
    </g>
</svg>