<svg xmlns="http://www.w3.org/2000/svg" width="45" height="45" viewBox="0 0 45 45">
  <g fill="none" fill-rule="evenodd">
    <circle cx="22.5" cy="22.5" r="22.5" fill="#2D455E"/>
    <path fill="#FFF" fill-rule="nonzero" d="M21.1647917,2.11547368 L23,0.379894737 L23,0 L16.6424167,0 L12.1114167,11.1486316 L6.95654167,0 L0.290375,0 L0.290375,0.379894737 L2.43416667,2.93115789 C2.64308333,3.11968421 2.75233333,3.39536842 2.72454167,3.67294737 L2.72454167,13.6989474 C2.79066667,14.0598947 2.67183333,14.4312632 2.415,14.6936842 L0,17.5869474 L0,17.9621053 L6.84729167,17.9621053 L6.84729167,17.5822105 L4.43229167,14.6936842 C4.17066667,14.4303158 4.04704167,14.0655789 4.09975,13.6989474 L4.09975,5.02673684 L10.1104167,17.9668421 L10.8090417,17.9668421 L15.9773333,5.02673684 L15.9773333,15.3350526 C15.9773333,15.6069474 15.9773333,15.6628421 15.7971667,15.8409474 L13.938,17.6191579 L13.938,18 L22.9578333,18 L22.9578333,17.6201053 L21.16575,15.8854737 C21.0085833,15.768 20.927125,15.5709474 20.9606667,15.3795789 L20.9606667,2.62136842 C20.927125,2.42905263 21.007625,2.232 21.1647917,2.11547368 L21.1647917,2.11547368 Z" transform="translate(11 14)"/>
  </g>
</svg>
