<?xml version="1.0" encoding="UTF-8"?>
<svg width="45px" height="45px" viewBox="0 0 45 45" version="1.1" xmlns="http://www.w3.org/2000/svg" xmlns:xlink="http://www.w3.org/1999/xlink">
    <title>693A6388-51FD-4850-AECD-28A9A3EAA426@1x</title>
    <g id="Website-&amp;-App" stroke="none" stroke-width="1" fill="none" fill-rule="evenodd">
        <g id="MoonBear-Homepage" transform="translate(-1345.000000, -368.000000)">
            <g id="telegram-icon" transform="translate(1345.000000, 368.000000)">
                <circle id="Base" fill="#2D455E" cx="22.5" cy="22.5" r="22.5"></circle>
                <g id="telegram" transform="translate(10.000000, 14.000000)" fill="#FFFFFF" fill-rule="nonzero">
                    <path d="M8.41834598,11.8250853 L8.06344704,16.8169133 C8.57121178,16.8169133 8.79112397,16.598789 9.05483981,16.3368611 L11.435434,14.0617532 L16.3682611,17.6742132 C17.2729405,18.1784022 17.9103283,17.9128984 18.1543772,16.8419439 L21.3922714,1.66979059 L21.3931653,1.66889664 C21.6801239,0.331544448 20.9095373,-0.191417472 20.0281006,0.136662912 L0.995862528,7.42326566 C-0.303049728,7.92745459 -0.283382784,8.65155571 0.775056384,8.9796361 L5.64083712,10.4930968 L16.9430723,3.42104256 C17.4749737,3.06882547 17.9586017,3.26370701 17.5607931,3.6159241 L8.41834598,11.8250853 Z" id="Path"></path>
                </g>
            </g>
        </g>
    </g>
</svg>