<?xml version="1.0" encoding="UTF-8"?>
<svg width="45px" height="45px" viewBox="0 0 45 45" version="1.1" xmlns="http://www.w3.org/2000/svg" xmlns:xlink="http://www.w3.org/1999/xlink">
    <title>7A986E01-6897-4AEC-BDEB-2738A315F0A8@1x</title>
    <g id="Website-&amp;-App" stroke="none" stroke-width="1" fill="none" fill-rule="evenodd">
        <g id="MoonBear-Homepage" transform="translate(-1345.000000, -428.000000)">
            <g id="twitter-icon" transform="translate(1345.000000, 428.000000)">
                <circle id="Base" fill="#2D455E" cx="22.5" cy="22.5" r="22.5"></circle>
                <g id="twitter" transform="translate(12.000000, 14.000000)" fill="#FFFFFF" fill-rule="nonzero">
                    <path d="M22.1184,2.1275136 C21.295872,2.48832 20.4194304,2.7274752 19.505664,2.8435968 C20.445696,2.2823424 21.1631616,1.4003712 21.5004672,0.3373056 C20.6240256,0.8598528 19.6563456,1.2289536 18.6250752,1.4349312 C17.7928704,0.5488128 16.6067712,0 15.3128448,0 C12.8024064,0 10.7813376,2.0376576 10.7813376,4.5356544 C10.7813376,4.8950784 10.8117504,5.2406784 10.8864,5.5696896 C7.1165952,5.3858304 3.780864,3.5790336 1.5399936,0.8266752 C1.1487744,1.5054336 0.919296,2.2823424 0.919296,3.1186944 C0.919296,4.6891008 1.728,6.0811776 2.9334528,6.8871168 C2.204928,6.8732928 1.4902272,6.6617856 0.884736,6.3286272 C0.884736,6.3424512 0.884736,6.3604224 0.884736,6.3783936 C0.884736,8.5819392 2.4565248,10.4122368 4.5176832,10.8338688 C4.1485824,10.934784 3.746304,10.983168 3.3288192,10.983168 C3.0385152,10.983168 2.7454464,10.9665792 2.4703488,10.9057536 C3.0578688,12.7014912 4.7250432,14.0216832 6.7074048,14.0645376 C5.1646464,15.2713728 3.2057856,15.9985152 1.085184,15.9985152 C0.7133184,15.9985152 0.3566592,15.9819264 -2.45563569e-15,15.9363072 C2.0086272,17.231616 4.38912,17.9712 6.9562368,17.9712 C15.3004032,17.9712 19.8623232,11.0592 19.8623232,5.0678784 C19.8623232,4.8674304 19.8554112,4.6738944 19.8457344,4.4817408 C20.7456768,3.843072 21.5018496,3.0454272 22.1184,2.1275136 Z" id="Path"></path>
                </g>
            </g>
        </g>
    </g>
</svg>