<svg xmlns="http://www.w3.org/2000/svg" width="45" height="45" viewBox="0 0 45 45">
  <g fill="none" fill-rule="evenodd">
    <circle cx="22.5" cy="22.5" r="22.5" fill="#2D455E"/>
    <g fill-rule="nonzero" transform="translate(8 13)">
      <path fill="#FFF" d="M27.439515,3.06945 C27.1165387,1.86924374 26.1702675,0.923186264 24.970275,0.599996264 C22.7778413,0 14.0081063,0 14.0081063,0 C14.0081063,0 5.238585,0 3.04615126,0.577125 C1.86924374,0.900101264 0.899887473,1.86945747 0.576911264,3.06945 C0,5.26167 0,9.80813253 0,9.80813253 C0,9.80813253 0,14.3774663 0.576911264,16.546815 C0.900101264,17.7468075 1.84615874,18.6930787 3.046365,19.0162687 C5.26167,19.616265 14.00832,19.616265 14.00832,19.616265 C14.00832,19.616265 22.7778413,19.616265 24.970275,19.03914 C26.1704813,18.7161637 27.1165387,17.7698925 27.4397287,16.5699 C28.0167578,14.3774663 28.0167578,9.83121747 28.0167578,9.83121747 C28.0167578,9.83121747 28.039725,5.26167 27.439515,3.06945 Z"/>
      <polygon fill="#2D455E" points="11.216 14.008 18.508 9.808 11.216 5.608"/>
    </g>
  </g>
</svg>
