<?xml version="1.0" encoding="UTF-8"?>
<svg width="70px" height="70px" viewBox="0 0 70 70" version="1.1" xmlns="http://www.w3.org/2000/svg" xmlns:xlink="http://www.w3.org/1999/xlink">
    <!-- Generator: Sketch 58 (84663) - https://sketch.com -->
    <title>active-interest-icon@1x</title>
    <desc>Created with Sketch.</desc>
    <g id="Sale-page" stroke="none" stroke-width="1" fill="none" fill-rule="evenodd">
        <g id="MoonBear-Staking-Platform---Stake" transform="translate(-185.000000, -699.000000)">
            <g id="My-Portfolio" transform="translate(165.000000, 380.000000)">
                <g id="active-interest-icon" transform="translate(20.000000, 319.000000)">
                    <circle id="Oval" fill="#FFF5D0" cx="35" cy="35" r="35"></circle>
                    <polygon id="Rectangle-Copy-4" fill="#000000" opacity="0.154278" points="35 13.5 51.5 13.5 46.542923 19.25 51.5 25 35 25"></polygon>
                    <path d="M34.25,14.75 L34.25,25.75 L49.9543976,25.75 L45.2128456,20.25 L49.9543976,14.75 L34.25,14.75 Z" id="Rectangle" stroke="#000000" stroke-width="0.5" fill="#FF9E3C"></path>
                    <path d="M41.6492989,19.0996636 C41.7324175,19.0996636 41.799889,19.0347466 41.799889,18.9546034 L41.799889,18.6659234 C41.799889,17.8389775 41.1399334,17.1583263 40.3005347,17.0847674 L40.3005347,16.6450602 C40.3005347,16.564917 40.2331742,16.5 40.1499445,16.5 C40.0667149,16.5 39.9993543,16.564917 39.9993543,16.6450602 L39.9993543,17.0847674 C39.1599556,17.1583263 38.5,17.8389775 38.5,18.6659234 C38.5,19.5418399 39.240189,20.2544866 40.1499445,20.2544866 C40.8935737,20.2544866 41.4985977,20.8369907 41.4985977,21.5529295 C41.4985977,22.2688684 40.8935737,22.8513724 40.1499445,22.8513724 C39.4062044,22.8513724 38.8012913,22.2688684 38.8012913,21.5529295 L38.8012913,21.2641466 C38.8012913,21.1842092 38.7338198,21.1190864 38.6507011,21.1190864 C38.5674715,21.1190864 38.500111,21.1842092 38.500111,21.2641466 L38.500111,21.5529295 C38.500111,22.3797725 39.1600666,23.0603208 39.9994653,23.1338797 L39.9994653,23.5736898 C39.9994653,23.6536272 40.0668258,23.71875 40.1500555,23.71875 C40.2332851,23.71875 40.3006457,23.6536272 40.3006457,23.5736898 L40.3006457,23.1338797 C41.1399334,23.0603208 41.8,22.3797725 41.8,21.5529295 C41.8,20.677013 41.059811,19.9644691 40.1500555,19.9644691 C39.4063154,19.9644691 38.8014023,19.3819651 38.8014023,18.6659234 C38.8014023,17.9498816 39.4062044,17.3674804 40.1499445,17.3674804 C40.8935737,17.3674804 41.4985977,17.9499845 41.4985977,18.6659234 L41.4985977,18.9546034 C41.4985977,19.0347466 41.5661802,19.0996636 41.6492989,19.0996636 Z" id="Path" stroke="#000000" stroke-width="0.5" fill="#000000" fill-rule="nonzero"></path>
                    <g id="Group-4" transform="translate(14.000000, 36.500000)">
                        <polygon id="Rectangle-Copy-5" fill="#000000" opacity="0.154278" points="6.34 -8.17124146e-14 37.12 -8.17124146e-14 42.12 13.68 1.34 13.68"></polygon>
                        <path d="M5.17480097,1.25 L0.357549506,14.43 L40.4224505,14.43 L35.605199,1.25 L5.17480097,1.25 Z" id="Rectangle" stroke="#000000" stroke-width="0.5" fill="#3C5E5C"></path>
                        <path d="M29.1279625,7.559015 C29.1279625,8.97233 25.1821375,10.11803 20.314195,10.11803 C15.4462525,10.11803 11.5,8.97233 11.5,7.559015 C11.5,6.1457 15.4462525,5 20.314195,5 C25.1821375,5 29.1279625,6.1457 29.1279625,7.559015 Z" id="Stroke-35" fill="#E1FFDC"></path>
                    </g>
                    <path d="M34.25,43.8570633 L34.25,13.1979752" id="Path-2" stroke="#000000" stroke-width="0.5"></path>
                </g>
            </g>
        </g>
    </g>
</svg>