<?xml version="1.0" encoding="UTF-8"?>
<svg width="70px" height="70px" viewBox="0 0 70 70" version="1.1" xmlns="http://www.w3.org/2000/svg" xmlns:xlink="http://www.w3.org/1999/xlink">
    <!-- Generator: Sketch 58 (84663) - https://sketch.com -->
    <title>daily-MBF-release-icon@1x</title>
    <desc>Created with Sketch.</desc>
    <g id="Sale-page" stroke="none" stroke-width="1" fill="none" fill-rule="evenodd">
        <g id="MoonBear-Staking-Platform---Stake" transform="translate(-685.000000, -180.000000)">
            <g id="Pod-B" transform="translate(545.000000, 150.000000)">
                <g id="daily-MBF-release-icon" transform="translate(140.000000, 30.000000)">
                    <circle id="Oval" fill="#FFF5D0" cx="35" cy="35" r="35"></circle>
                    <circle id="Oval" fill="#000000" opacity="0.154278" cx="21" cy="19.875" r="8.75"></circle>
                    <g id="Group-10" transform="translate(13.000000, 13.000000)" stroke="#000000" stroke-width="0.5">
                        <g id="Group-3" transform="translate(0.000000, 0.011550)" fill="#FEFAF1">
                            <path d="M6.781824,11.7540045 L6.781404,11.7538995 L4.821264,8.387232 L4.180239,7.2861495 L4.948419,5.8545795 L6.427554,6.337737 L7.5671715,6.7100145 L8.178219,6.3783195 L10.0406565,7.4773545 C10.2017265,7.270977 10.452099,7.1377845 10.7340765,7.1377845 C11.2200165,7.1377845 11.6139765,7.531692 11.6139765,8.0176845 C11.6139765,8.140587 11.588619,8.257557 11.543049,8.3638695 L14.8647765,10.323957 C14.8647765,10.323957 15.767304,10.943772 16.4875515,12.0115695 C16.9324365,10.9738545 17.1790815,9.8310345 17.1790815,8.6304645 C17.1790815,3.886617 13.333404,0.0409395 8.5895565,0.0409395 C3.8456565,0.0409395 -2.1e-05,3.886617 -2.1e-05,8.6304645 C-2.1e-05,10.6817445 0.719439,12.564657 1.9192215,14.0417445 C3.1670415,12.7447845 4.8756015,11.894127 6.781824,11.7540045" id="Fill-1"></path>
                        </g>
                        <path d="M8.58955125,17.23155 C12.1328287,17.23155 15.1746788,15.085875 16.4875462,12.02313 C15.7672988,10.9553325 14.8647713,10.3355175 14.8647713,10.3355175 L11.5430963,8.37543 C11.5886138,8.2691175 11.6139713,8.1521475 11.6139713,8.0291925 C11.6139713,7.5432525 11.2200112,7.149345 10.7340712,7.149345 C10.4520937,7.149345 10.2017212,7.2825375 10.0406512,7.4888625 L8.17821375,6.38988 L7.56716625,6.721575 L6.42754875,6.3492975 L4.94841375,5.86614 L4.18023375,7.29771 L4.82125875,8.39874 L6.78139875,11.76546 L6.78181875,11.765565 C4.87564875,11.9056875 3.16708875,12.7562925 1.91921625,14.053305 C3.49411125,15.992235 5.89693125,17.23155 8.58955125,17.23155" id="Fill-6" fill="#FF9E3C"></path>
                        <polygon id="Fill-8" fill="#F7D99C" points="9.0101025 3.77124825 7.82901 3.27417825 9.0101025 2.77710825 9.5071725 1.59601575 10.0042425 2.77710825 11.185335 3.27417825 10.0042425 3.77124825 9.5071725 4.95239325"></polygon>
                    </g>
                    <path d="M50.4972,37.63612 C55.052,37.63612 58.744,38.70812 58.744,40.03052 L58.7442,40.03072 L58.7442,44.03912 L58.744,44.03912 C58.744,45.36152 55.052,46.43312 50.4972,46.43312 C45.9424,46.43312 42.25,45.36152 42.25,44.03912 L42.2502,40.03072 C42.2501818,39.9104836 42.280681,39.7923183 42.3395711,39.6768413 L42.3888896,39.5906079 C43.1003182,38.4783266 46.4599909,37.63612 50.4972,37.63612 Z" id="Combined-Shape" fill="#000000" opacity="0.154278"></path>
                    <g id="Group" transform="translate(43.000000, 39.500000)">
                        <path d="M16.494,6.41412 C16.494,7.73652 12.802,8.80812 8.2472,8.80812 C3.6924,8.80812 0,7.73652 0,6.41412 C0,5.09172 3.6924,4.01972 8.2472,4.01972 C12.802,4.01972 16.494,5.09172 16.494,6.41412" id="Fill-1" fill="#FF9E3C"></path>
                        <path d="M16.494,6.41412 C16.494,7.73652 12.802,8.80812 8.2472,8.80812 C3.6924,8.80812 0,7.73652 0,6.41412 C0,5.09172 3.6924,4.01972 8.2472,4.01972 C12.802,4.01972 16.494,5.09172 16.494,6.41412 Z" id="Stroke-3" stroke="#000000" stroke-width="0.5"></path>
                        <polyline id="Fill-5" fill="#FF9E3C" points="16.4942 6.41412 16.4942 2.40572 0.0002 2.40572 0.0002 6.41412"></polyline>
                        <polyline id="Stroke-7" stroke="#000000" stroke-width="0.5" points="16.4942 6.41412 16.4942 2.40572 0.0002 2.40572 0.0002 6.41412"></polyline>
                        <path d="M16.494,2.40552 C16.494,3.72792 12.802,4.79992 8.2472,4.79992 C3.6924,4.79992 0,3.72792 0,2.40552 C0,1.08312 3.6924,0.01112 8.2472,0.01112 C12.802,0.01112 16.494,1.08312 16.494,2.40552" id="Fill-9" fill="#FFD3A5"></path>
                        <path d="M16.494,2.40552 C16.494,3.72792 12.802,4.79992 8.2472,4.79992 C3.6924,4.79992 0,3.72792 0,2.40552 C0,1.08312 3.6924,0.01112 8.2472,0.01112 C12.802,0.01112 16.494,1.08312 16.494,2.40552 Z" id="Stroke-11" stroke="#000000" stroke-width="0.5"></path>
                    </g>
                    <g id="Group-Copy" transform="translate(43.000000, 39.500000)"></g>
                    <path d="M51.5,42 L51.5,22.3645324 C51.5,18.297368 48.2207177,15 44.1754739,15 C40.1302302,15 37,18.297368 37,22.3645324 L37,49.2830916 C37,53.5450732 33.4143279,57 29.1753169,57 C24.936306,57 21.5,53.5450732 21.5,49.2830916 L21.5,30" id="Stroke-1" stroke="#000000" stroke-width="0.5"></path>
                    <rect id="Rectangle" stroke="#FFF5D0" fill="#3C5E5C" x="19.5" y="37" width="4" height="6" rx="1.5"></rect>
                    <rect id="Rectangle-Copy" stroke="#FFF5D0" fill="#3C5E5C" x="35" y="22.5" width="4" height="6" rx="1.5"></rect>
                    <rect id="Rectangle-Copy-2" stroke="#FFF5D0" fill="#3C5E5C" x="35" y="43" width="4" height="6" rx="1.5"></rect>
                    <rect id="Rectangle-Copy-3" stroke="#FFF5D0" fill="#3C5E5C" x="49.5" y="29" width="4" height="6" rx="1.5"></rect>
                </g>
            </g>
        </g>
    </g>
</svg>