<?xml version="1.0" encoding="UTF-8"?>
<svg width="70px" height="70px" viewBox="0 0 70 70" version="1.1" xmlns="http://www.w3.org/2000/svg" xmlns:xlink="http://www.w3.org/1999/xlink">
    <!-- Generator: Sketch 58 (84663) - https://sketch.com -->
    <title>liquid-icon@1x</title>
    <desc>Created with Sketch.</desc>
    <g id="Sale-page" stroke="none" stroke-width="1" fill="none" fill-rule="evenodd">
        <g id="MoonBear-Staking-Platform---Stake" transform="translate(-185.000000, -816.000000)">
            <g id="My-Portfolio" transform="translate(165.000000, 380.000000)">
                <g id="liquid-icon" transform="translate(20.000000, 436.000000)">
                    <circle id="Oval" fill="#FFF5D0" cx="35" cy="35" r="35"></circle>
                    <g id="Group-9" transform="translate(16.850302, 35.178002) rotate(-75.000000) translate(-16.850302, -35.178002) translate(2.350302, 27.178002)" stroke="#000000" stroke-width="0.5">
                        <polyline id="Path-4" transform="translate(2.869716, 13.170647) rotate(-31.000000) translate(-2.869716, -13.170647) " points="1.46413384 11.7802771 1.46413384 14.561016 4.27529884 14.561016"></polyline>
                        <path d="M27.696334,11.5204833 C25.0366521,6.81098578 19.9848889,3.63150064 14.1905171,3.63150064 C8.46008458,3.63150064 3.58943254,6.83288079 0.995336553,11.5174329" id="Oval" transform="translate(14.345835, 7.575992) rotate(-15.000000) translate(-14.345835, -7.575992) "></path>
                    </g>
                    <g id="Group-9-Copy" transform="translate(53.237930, 35.531555) rotate(-255.000000) translate(-53.237930, -35.531555) translate(38.737930, 27.531555)" stroke="#000000" stroke-width="0.5">
                        <polyline id="Path-4" transform="translate(2.869716, 13.170647) rotate(-31.000000) translate(-2.869716, -13.170647) " points="1.46413384 11.7802771 1.46413384 14.561016 4.27529884 14.561016"></polyline>
                        <path d="M27.696334,11.5204833 C25.0366521,6.81098578 19.9848889,3.63150064 14.1905171,3.63150064 C8.46008458,3.63150064 3.58943254,6.83288079 0.995336553,11.5174329" id="Oval" transform="translate(14.345835, 7.575992) rotate(-15.000000) translate(-14.345835, -7.575992) "></path>
                    </g>
                    <g id="Group-5" transform="translate(26.000000, 39.500000)">
                        <circle id="Oval" fill="#000000" opacity="0.154278" cx="8.75" cy="8.75" r="8.75"></circle>
                        <g id="Group-10" transform="translate(1.000000, 1.000000)" stroke="#000000" stroke-width="0.5">
                            <g id="Group-3" transform="translate(0.000000, 0.011550)" fill="#FEFAF1">
                                <path d="M6.781824,11.7540045 L6.781404,11.7538995 L4.821264,8.387232 L4.180239,7.2861495 L4.948419,5.8545795 L6.427554,6.337737 L7.5671715,6.7100145 L8.178219,6.3783195 L10.0406565,7.4773545 C10.2017265,7.270977 10.452099,7.1377845 10.7340765,7.1377845 C11.2200165,7.1377845 11.6139765,7.531692 11.6139765,8.0176845 C11.6139765,8.140587 11.588619,8.257557 11.543049,8.3638695 L14.8647765,10.323957 C14.8647765,10.323957 15.767304,10.943772 16.4875515,12.0115695 C16.9324365,10.9738545 17.1790815,9.8310345 17.1790815,8.6304645 C17.1790815,3.886617 13.333404,0.0409395 8.5895565,0.0409395 C3.8456565,0.0409395 -2.09999998e-05,3.886617 -2.09999998e-05,8.6304645 C-2.09999998e-05,10.6817445 0.719439,12.564657 1.9192215,14.0417445 C3.1670415,12.7447845 4.8756015,11.894127 6.781824,11.7540045" id="Fill-1"></path>
                            </g>
                            <path d="M8.58955125,17.23155 C12.1328287,17.23155 15.1746787,15.085875 16.4875462,12.02313 C15.7672987,10.9553325 14.8647712,10.3355175 14.8647712,10.3355175 L11.5430962,8.37543 C11.5886137,8.2691175 11.6139712,8.1521475 11.6139712,8.0291925 C11.6139712,7.5432525 11.2200112,7.149345 10.7340712,7.149345 C10.4520937,7.149345 10.2017212,7.2825375 10.0406512,7.4888625 L8.17821375,6.38988 L7.56716625,6.721575 L6.42754875,6.3492975 L4.94841375,5.86614 L4.18023375,7.29771 L4.82125875,8.39874 L6.78139875,11.76546 L6.78181875,11.765565 C4.87564875,11.9056875 3.16708875,12.7562925 1.91921625,14.053305 C3.49411125,15.992235 5.89693125,17.23155 8.58955125,17.23155" id="Fill-6" fill="#FF9E3C"></path>
                            <polygon id="Fill-8" fill="#E1FFDC" points="9.0101025 3.77124825 7.82901 3.27417825 9.0101025 2.77710825 9.5071725 1.59601575 10.0042425 2.77710825 11.185335 3.27417825 10.0042425 3.77124825 9.5071725 4.95239325"></polygon>
                        </g>
                    </g>
                    <g id="Group-24" transform="translate(24.500000, 13.000000)">
                        <g id="Group-25">
                            <path d="M10.0002425,0 C10.8090221,0 11.5953665,0.0288026886 12.3485029,0.0831754392 C12.5298629,0.0962737428 12.7084742,0.11078042 12.8850289,0.126711644 C12.9158245,0.129490153 12.946829,0.132337378 12.977769,0.135228472 C13.1035076,0.146979078 13.2278736,0.159421369 13.3511258,0.17256842 C13.4532192,0.183456722 13.555022,0.194884406 13.6560225,0.206790887 C13.7025942,0.212281282 13.7488357,0.217853838 13.7949049,0.223526588 C13.9431899,0.241785835 14.0896735,0.261081027 14.2342707,0.281383937 C14.5625254,0.327468327 14.8814761,0.378822061 15.1895005,0.435029082 C15.2314159,0.442678272 15.2728155,0.450358207 15.3140128,0.458125789 C15.360387,0.46686887 15.4067537,0.475771633 15.4528572,0.484785397 C15.4904893,0.492142416 15.5281916,0.499622828 15.5657138,0.507177471 C15.6176732,0.51764058 15.6686551,0.528113524 15.7192942,0.538723538 C15.7438565,0.543868709 15.7691928,0.549228684 15.794442,0.554622976 C15.852134,0.56695076 15.9086353,0.579293414 15.9646847,0.591808028 C16.008925,0.601685322 16.053109,0.611721798 16.0970043,0.621865212 C16.1300165,0.629493405 16.1630394,0.637223338 16.1958954,0.645013839 C16.2476852,0.657294723 16.2987537,0.669650451 16.3494053,0.682152706 C16.370807,0.687434844 16.3924449,0.692821103 16.4140056,0.698234122 C16.5532208,0.733187732 16.688978,0.769190026 16.821376,0.806258364 C16.857832,0.816464669 16.8942224,0.826806322 16.9303522,0.837228684 C16.9472079,0.842090832 16.9641699,0.847018204 16.9810736,0.851963384 C17.0330168,0.867160115 17.0842243,0.882468032 17.1348769,0.897939982 C17.1659242,0.907424092 17.1965249,0.916895145 17.2269181,0.92642622 C17.4742684,1.00398996 17.7080138,1.08558051 17.9268315,1.17079895 C17.9735409,1.18899188 18.0192572,1.20722241 18.0642914,1.22561264 C18.2103332,1.28524042 18.3496344,1.34675372 18.4813315,1.40984165 C18.5093375,1.42325987 18.5366012,1.43655164 18.5635273,1.44991151 C18.6510144,1.49330473 18.7356657,1.53782172 18.816566,1.58303291 C18.8315909,1.59142927 18.8465627,1.59989315 18.8614029,1.60838099 C18.8813072,1.61976471 18.9010537,1.63123804 18.9205597,1.6427542 C18.949517,1.65985329 18.9776339,1.67685461 19.005226,1.69394637 C19.0760161,1.73778865 19.1436388,1.78242731 19.2076706,1.82763428 C19.2265697,1.84097778 19.2450996,1.85432932 19.2633158,1.86772924 C19.3691355,1.94556118 19.4644996,2.02514703 19.5487112,2.1062087 C19.5584022,2.1155348 19.5681467,2.1250811 19.5777363,2.13464752 C19.5892873,2.14616208 19.6011591,2.1582749 19.612782,2.17041929 C19.6609049,2.2207077 19.7046838,2.27143603 19.7440895,2.32266629 C19.8038271,2.40029179 19.853681,2.47938673 19.8929768,2.55951215 C19.9478846,2.67148973 19.982163,2.7854051 19.9946553,2.90097275 L20,3 L20,7.50025061 C20,9.15725503 15.5232206,10.5 10.0002425,10.5 C4.47726446,10.5 0,9.15725503 0,7.50025061 L0,3 C0,1.34313398 4.47726446,0 10.0002425,0 Z" id="Combined-Shape" fill="#000000" opacity="0.154278"></path>
                            <path d="M21.1,8.8 C21.1,10.456866 16.6008367,11.8 11.0502437,11.8 C5.49965078,11.8 1,10.456866 1,8.8 C1,7.14313398 5.49965078,5.8 11.0502437,5.8 C16.6008367,5.8 21.1,7.14313398 21.1,8.8" id="Fill-9" fill="#FFD3A5"></path>
                            <path d="M21.1,8.8 C21.1,10.456866 16.6008367,11.8 11.0502437,11.8 C5.49965078,11.8 1,10.456866 1,8.8 C1,7.14313398 5.49965078,5.8 11.0502437,5.8 C16.6008367,5.8 21.1,7.14313398 21.1,8.8 Z" id="Stroke-11" stroke="#000000" stroke-width="0.5"></path>
                            <path d="M21.1,8.60025061 C21.1,10.257255 16.6008367,11.6 11.0502437,11.6 C5.49965078,11.6 1,10.257255 1,8.60025061 C1,6.94324618 5.49965078,5.6 11.0502437,5.6 C16.6008367,5.6 21.1,6.94324618 21.1,8.60025061" id="Fill-1" fill="#FF9E3C"></path>
                            <path d="M21.1,8.80025061 C21.1,10.457255 16.6008367,11.8 11.0502437,11.8 C5.49965078,11.8 1,10.457255 1,8.80025061 C1,7.14324618 5.49965078,5.8 11.0502437,5.8 C16.6008367,5.8 21.1,7.14324618 21.1,8.80025061 Z" id="Stroke-3" stroke="#000000" stroke-width="0.5"></path>
                            <polyline id="Fill-5" fill="#FF9E3C" points="21.1 8.8 21.1 4 1 4 1 8.8"></polyline>
                            <polyline id="Stroke-7" stroke="#000000" stroke-width="0.5" points="21.1 8.8 21.1 4 1 4 1 8.8"></polyline>
                            <path d="M21.1,4 C21.1,5.65686602 16.6008367,7 11.0502437,7 C5.49965078,7 1,5.65686602 1,4 C1,2.34313398 5.49965078,1 11.0502437,1 C16.6008367,1 21.1,2.34313398 21.1,4" id="Fill-9" fill="#FFD3A5"></path>
                            <path d="M21.1,4 C21.1,5.65686602 16.6008367,7 11.0502437,7 C5.49965078,7 1,5.65686602 1,4 C1,2.34313398 5.49965078,1 11.0502437,1 C16.6008367,1 21.1,2.34313398 21.1,4 Z" id="Stroke-11" stroke="#000000" stroke-width="0.5"></path>
                        </g>
                    </g>
                </g>
            </g>
        </g>
    </g>
</svg>