<?xml version="1.0" encoding="UTF-8"?>
<svg width="70px" height="70px" viewBox="0 0 70 70" version="1.1" xmlns="http://www.w3.org/2000/svg" xmlns:xlink="http://www.w3.org/1999/xlink">
    <!-- Generator: Sketch 58 (84663) - https://sketch.com -->
    <title>staking-icon@1x</title>
    <desc>Created with Sketch.</desc>
    <g id="Sale-page" stroke="none" stroke-width="1" fill="none" fill-rule="evenodd">
        <g id="MoonBear-Staking-Platform---Stake" transform="translate(-185.000000, -581.000000)">
            <g id="My-Portfolio" transform="translate(165.000000, 380.000000)">
                <g id="staking-icon" transform="translate(20.000000, 201.000000)">
                    <circle id="Oval" fill="#FFF5D0" cx="35" cy="35" r="35"></circle>
                    <path d="M36.2502486,19.5 C36.5138565,19.5 36.7751391,19.5029123 37.0337416,19.5086331 C37.215334,19.5126492 37.3957949,19.5180574 37.5748082,19.5248172 C37.5911728,19.5254348 37.6082253,19.5260911 37.6252645,19.5267598 C37.8183349,19.5343392 38.0090977,19.5434576 38.1980145,19.5540941 L38.2365967,19.5562889 C38.2938288,19.5595782 38.3508901,19.5630069 38.4077762,19.5665737 C38.4498442,19.5692114 38.4918159,19.5719247 38.53369,19.574713 C38.5724755,19.5772951 38.6116278,19.5799731 38.6506932,19.5827167 C38.8257621,19.5950136 38.9987705,19.6085982 39.1699089,19.6234555 C39.2078691,19.6267507 39.2459573,19.6301285 39.283951,19.6335691 C39.3459813,19.6391865 39.4077966,19.6449751 39.4693536,19.6509299 C39.5056744,19.6544436 39.5418089,19.6580054 39.5778527,19.6616244 C39.6409629,19.6679607 39.7039173,19.6744853 39.7665857,19.6811838 C39.7889352,19.683573 39.8109706,19.6859539 39.8329701,19.6883563 C40.0165983,19.708408 40.1978576,19.7299727 40.3764469,19.7529855 C40.4081665,19.7570726 40.4400194,19.7612341 40.4717859,19.7654417 C40.5224462,19.7721517 40.5730194,19.778997 40.6233678,19.7859588 C40.6739417,19.7929529 40.7236751,19.7999762 40.7731831,19.807113 C41.0099524,19.8412419 41.2417944,19.8780066 41.4680361,19.9172455 C41.5187675,19.9260437 41.5694596,19.93501 41.6198624,19.9441004 C41.6544773,19.9503442 41.6884396,19.956551 41.7222679,19.9628141 C41.8663231,19.989481 42.008545,20.0172926 42.1481976,20.0460997 C42.1950488,20.0557637 42.2417203,20.0655632 42.2880967,20.0754739 C42.5936428,20.1407668 42.8865289,20.2109279 43.1652797,20.2855381 C43.3458381,20.3338554 43.5212612,20.3842841 43.6903379,20.4364912 C43.714342,20.443902 43.7387505,20.4515164 43.7630243,20.4591679 C43.7952974,20.4693421 43.8269693,20.4794642 43.8584056,20.4896499 C43.970356,20.5259219 44.0793762,20.5630182 44.1852945,20.6008865 C44.2199118,20.6132626 44.2543165,20.625765 44.2883835,20.6383492 C44.3108676,20.6466542 44.3334255,20.6550782 44.3558322,20.6635382 C44.4618886,20.7035869 44.5641692,20.7442802 44.6629639,20.785738 C44.7570476,20.8252216 44.8477959,20.8653177 44.9352883,20.9060733 C45.012726,20.9421392 45.0879943,20.9789168 45.1606107,21.0161943 C45.2380808,21.0559641 45.312503,21.096286 45.383818,21.1371496 C45.4078623,21.1509285 45.4313687,21.1646589 45.4545239,21.1784489 C45.4743763,21.1902723 45.4939258,21.2021119 45.5132163,21.2139945 C45.533766,21.2266512 45.5542264,21.2394874 45.5743842,21.2523726 C45.643244,21.2963939 45.7084169,21.340874 45.7699702,21.3858926 C45.7914655,21.4016156 45.8123689,21.4172886 45.8328328,21.433025 C45.8879512,21.4754091 45.9399123,21.5182806 45.9885955,21.5615878 C46.0401438,21.6074467 46.087963,21.6537374 46.1320138,21.7004856 C46.1884246,21.7603369 46.2387827,21.8211114 46.2827138,21.8825772 C46.3813494,22.0205406 46.4476485,22.1621738 46.4790416,22.3065841 L46.4947339,22.4029069 L46.4947339,22.4029069 L46.5,22.5 L46.5,27.5002506 C46.5,29.157255 41.9113011,30.5 36.2502486,30.5 C30.5891961,30.5 26,29.157255 26,27.5002506 L26,22.5 C26,20.843134 30.5891961,19.5 36.2502486,19.5 Z" id="Combined-Shape" fill="#000000" opacity="0.154278"></path>
                    <path d="M36.2502486,36.5 C36.5138565,36.5 36.7751391,36.5029123 37.0337416,36.5086331 C37.215334,36.5126492 37.3957949,36.5180574 37.5748082,36.5248172 C37.5911728,36.5254348 37.6082253,36.5260911 37.6252645,36.5267598 C37.8183349,36.5343392 38.0090977,36.5434576 38.1980145,36.5540941 L38.2365967,36.5562889 C38.2938288,36.5595782 38.3508901,36.5630069 38.4077762,36.5665737 C38.4498442,36.5692114 38.4918159,36.5719247 38.53369,36.574713 C38.5724755,36.5772951 38.6116278,36.5799731 38.6506932,36.5827167 C38.8257621,36.5950136 38.9987705,36.6085982 39.1699089,36.6234555 C39.2078691,36.6267507 39.2459573,36.6301285 39.283951,36.6335691 C39.3459813,36.6391865 39.4077966,36.6449751 39.4693536,36.6509299 C39.5056744,36.6544436 39.5418089,36.6580054 39.5778527,36.6616244 C39.6409629,36.6679607 39.7039173,36.6744853 39.7665857,36.6811838 C39.7889352,36.683573 39.8109706,36.6859539 39.8329701,36.6883563 C40.0165983,36.708408 40.1978576,36.7299727 40.3764469,36.7529855 C40.4081665,36.7570726 40.4400194,36.7612341 40.4717859,36.7654417 C40.5224462,36.7721517 40.5730194,36.778997 40.6233678,36.7859588 C40.6739417,36.7929529 40.7236751,36.7999762 40.7731831,36.807113 C41.0099524,36.8412419 41.2417944,36.8780066 41.4680361,36.9172455 C41.5187675,36.9260437 41.5694596,36.93501 41.6198624,36.9441004 C41.6544773,36.9503442 41.6884396,36.956551 41.7222679,36.9628141 C41.8663231,36.989481 42.008545,37.0172926 42.1481976,37.0460997 C42.1950488,37.0557637 42.2417203,37.0655632 42.2880967,37.0754739 C42.5936428,37.1407668 42.8865289,37.2109279 43.1652797,37.2855381 C43.3458381,37.3338554 43.5212612,37.3842841 43.6903379,37.4364912 C43.714342,37.443902 43.7387505,37.4515164 43.7630243,37.4591679 C43.7952974,37.4693421 43.8269693,37.4794642 43.8584056,37.4896499 C43.970356,37.5259219 44.0793762,37.5630182 44.1852945,37.6008865 C44.2199118,37.6132626 44.2543165,37.625765 44.2883835,37.6383492 C44.3108676,37.6466542 44.3334255,37.6550782 44.3558322,37.6635382 C44.4618886,37.7035869 44.5641692,37.7442802 44.6629639,37.785738 C44.7570476,37.8252216 44.8477959,37.8653177 44.9352883,37.9060733 C45.012726,37.9421392 45.0879943,37.9789168 45.1606107,38.0161943 C45.2380808,38.0559641 45.312503,38.096286 45.383818,38.1371496 C45.4078623,38.1509285 45.4313687,38.1646589 45.4545239,38.1784489 C45.4743763,38.1902723 45.4939258,38.2021119 45.5132163,38.2139945 C45.533766,38.2266512 45.5542264,38.2394874 45.5743842,38.2523726 C45.643244,38.2963939 45.7084169,38.340874 45.7699702,38.3858926 C45.7914655,38.4016156 45.8123689,38.4172886 45.8328328,38.433025 C45.8879512,38.4754091 45.9399123,38.5182806 45.9885955,38.5615878 C46.0401438,38.6074467 46.087963,38.6537374 46.1320138,38.7004856 C46.1884246,38.7603369 46.2387827,38.8211114 46.2827138,38.8825772 C46.3813494,39.0205406 46.4476485,39.1621738 46.4790416,39.3065841 L46.4947339,39.4029069 L46.4947339,39.4029069 L46.5,39.5 L46.5,44.5002506 C46.5,46.157255 41.9113011,47.5 36.2502486,47.5 C30.5891961,47.5 26,46.157255 26,44.5002506 L26,39.5 C26,37.843134 30.5891961,36.5 36.2502486,36.5 Z" id="Combined-Shape-Copy" fill="#000000" opacity="0.154278"></path>
                    <g id="Group-37" transform="translate(24.500000, 20.500000)">
                        <g id="Group" transform="translate(0.249950, 17.246750)">
                            <path d="M20.6175,8.01765 C20.6175,9.67065 16.0025,11.01015 10.309,11.01015 C4.6155,11.01015 0,9.67065 0,8.01765 C0,6.36465 4.6155,5.02465 10.309,5.02465 C16.0025,5.02465 20.6175,6.36465 20.6175,8.01765" id="Fill-1" fill="#FF9E3C"></path>
                            <path d="M20.6175,8.01765 C20.6175,9.67065 16.0025,11.01015 10.309,11.01015 C4.6155,11.01015 0,9.67065 0,8.01765 C0,6.36465 4.6155,5.02465 10.309,5.02465 C16.0025,5.02465 20.6175,6.36465 20.6175,8.01765 Z" id="Stroke-3" stroke="#000000" stroke-width="0.5"></path>
                            <polyline id="Fill-5" fill="#FF9E3C" points="20.61775 8.01765 20.61775 3.00715 0.00025 3.00715 0.00025 8.01765"></polyline>
                            <polyline id="Stroke-7" stroke="#000000" stroke-width="0.5" points="20.61775 8.01765 20.61775 3.00715 0.00025 3.00715 0.00025 8.01765"></polyline>
                            <path d="M20.6175,3.0069 C20.6175,4.6599 16.0025,5.9999 10.309,5.9999 C4.6155,5.9999 0,4.6599 0,3.0069 C0,1.3539 4.6155,0.0139 10.309,0.0139 C16.0025,0.0139 20.6175,1.3539 20.6175,3.0069" id="Fill-9" fill="#FFD3A5"></path>
                            <path d="M20.6175,3.0069 C20.6175,4.6599 16.0025,5.9999 10.309,5.9999 C4.6155,5.9999 0,4.6599 0,3.0069 C0,1.3539 4.6155,0.0139 10.309,0.0139 C16.0025,0.0139 20.6175,1.3539 20.6175,3.0069 Z" id="Stroke-11" stroke="#000000" stroke-width="0.5"></path>
                        </g>
                        <g id="Group-8" transform="translate(0.000000, 20.007150)"></g>
                        <path d="M20.86745,16.7644 C20.86745,18.4174 16.25245,19.7569 10.55895,19.7569 C4.86545,19.7569 0.24995,18.4174 0.24995,16.7644 C0.24995,15.1114 4.86545,13.7714 10.55895,13.7714 C16.25245,13.7714 20.86745,15.1114 20.86745,16.7644" id="Fill-13" fill="#3C5E5C"></path>
                        <path d="M20.86745,16.7644 C20.86745,18.4174 16.25245,19.7569 10.55895,19.7569 C4.86545,19.7569 0.24995,18.4174 0.24995,16.7644 C0.24995,15.1114 4.86545,13.7714 10.55895,13.7714 C16.25245,13.7714 20.86745,15.1114 20.86745,16.7644 Z" id="Stroke-15" stroke="#000000" stroke-width="0.5"></path>
                        <g id="Group-20" transform="translate(0.000000, 11.507150)">
                            <polyline id="Fill-17" fill="#3C5E5C" points="20.8677 5.25725 20.8677 0.24675 0.2502 0.24675 0.2502 5.25725"></polyline>
                            <polyline id="Stroke-19" stroke="#000000" stroke-width="0.5" points="20.8677 5.25725 20.8677 0.24675 0.2502 0.24675 0.2502 5.25725"></polyline>
                        </g>
                        <path d="M20.86745,11.75365 C20.86745,13.40665 16.25245,14.74665 10.55895,14.74665 C4.86545,14.74665 0.24995,13.40665 0.24995,11.75365 C0.24995,10.10065 4.86545,8.76065 10.55895,8.76065 C16.25245,8.76065 20.86745,10.10065 20.86745,11.75365" id="Fill-21" fill="#E1FFDC"></path>
                        <path d="M20.86745,11.75365 C20.86745,13.40665 16.25245,14.74665 10.55895,14.74665 C4.86545,14.74665 0.24995,13.40665 0.24995,11.75365 C0.24995,10.10065 4.86545,8.76065 10.55895,8.76065 C16.25245,8.76065 20.86745,10.10065 20.86745,11.75365 Z" id="Stroke-23" stroke="#000000" stroke-width="0.5"></path>
                        <path d="M20.86745,8.25365 C20.86745,9.90665 16.25245,11.24665 10.55895,11.24665 C4.86545,11.24665 0.24995,9.90665 0.24995,8.25365 C0.24995,6.60065 4.86545,5.26065 10.55895,5.26065 C16.25245,5.26065 20.86745,6.60065 20.86745,8.25365" id="Fill-25" fill="#FF9E3C"></path>
                        <path d="M20.86745,8.25365 C20.86745,9.90665 16.25245,11.24665 10.55895,11.24665 C4.86545,11.24665 0.24995,9.90665 0.24995,8.25365 C0.24995,6.60065 4.86545,5.26065 10.55895,5.26065 C16.25245,5.26065 20.86745,6.60065 20.86745,8.25365 Z" id="Stroke-27" stroke="#000000" stroke-width="0.5"></path>
                        <g id="Group-32" transform="translate(0.000000, 3.007150)">
                            <polyline id="Fill-29" fill="#FF9E3C" points="20.8677 5.2465 20.8677 0.236 0.2502 0.236 0.2502 5.2465"></polyline>
                            <polyline id="Stroke-31" stroke="#000000" stroke-width="0.5" points="20.8677 5.2465 20.8677 0.236 0.2502 0.236 0.2502 5.2465"></polyline>
                        </g>
                        <path d="M20.86745,3.2429 C20.86745,4.8959 16.25245,6.2359 10.55895,6.2359 C4.86545,6.2359 0.24995,4.8959 0.24995,3.2429 C0.24995,1.5899 4.86545,0.2499 10.55895,0.2499 C16.25245,0.2499 20.86745,1.5899 20.86745,3.2429" id="Fill-33" fill="#FFD3A5"></path>
                        <path d="M20.86745,3.2429 C20.86745,4.8959 16.25245,6.2359 10.55895,6.2359 C4.86545,6.2359 0.24995,4.8959 0.24995,3.2429 C0.24995,1.5899 4.86545,0.2499 10.55895,0.2499 C16.25245,0.2499 20.86745,1.5899 20.86745,3.2429 Z" id="Stroke-35" stroke="#000000" stroke-width="0.5"></path>
                    </g>
                    <path d="M35.05895,11.2591248 L35.05895,23.9749947" id="Path-3" stroke="#000000" stroke-width="0.5"></path>
                    <polyline id="Path-4" stroke="#000000" stroke-width="0.5" transform="translate(35.098026, 22.370518) rotate(-45.000000) translate(-35.098026, -22.370518) " points="33.6924438 20.9801483 33.6924438 23.7608871 36.5036087 23.7608871"></polyline>
                </g>
            </g>
        </g>
    </g>
</svg>