<?xml version="1.0" encoding="UTF-8"?>
<svg width="70px" height="70px" viewBox="0 0 70 70" version="1.1" xmlns="http://www.w3.org/2000/svg" xmlns:xlink="http://www.w3.org/1999/xlink">
    <!-- Generator: Sketch 58 (84663) - https://sketch.com -->
    <title>MBF-staked-icon@1x</title>
    <desc>Created with Sketch.</desc>
    <g id="Sale-page" stroke="none" stroke-width="1" fill="none" fill-rule="evenodd">
        <g id="MoonBear-Staking-Platform---Stake" transform="translate(-305.000000, -180.000000)">
            <g id="Pod-A" transform="translate(165.000000, 150.000000)">
                <g id="MBF-staked-icon" transform="translate(140.000000, 30.000000)">
                    <circle id="Oval" fill="#FFF5D0" cx="35" cy="35" r="35"></circle>
                    <g id="Group-19" transform="translate(16.500000, 9.000000)">
                        <path d="M16.7504062,12 C26.0013944,12 33.5,14.0675558 33.5,16.6180556 C33.5,16.6972488 33.4927705,16.7759765 33.4784836,16.8541912 C33.4780472,16.8565798 33.4776151,16.8589097 33.4771768,16.8612392 L33.5,16.8611111 L33.5,25.1180556 L33.5,25.1180556 C33.5,25.1972488 33.4927705,25.2759765 33.4784836,25.3541912 C33.4780472,25.3565798 33.4776151,25.3589097 33.4771768,25.3612392 L33.5,25.3611111 L33.5,33.625 L33.4771768,33.6255318 C33.0185525,36.0631435 25.7055206,38 16.7504062,38 C7.79529179,38 0.481498603,36.0631435 0.0228256131,33.6255318 L0,33.625 L0,25.3611111 L0.0228256131,25.3612392 L0.00556454811,25.2373714 L0.00556454811,25.2373714 L0,25.125 L0,16.8611111 L0.0228256131,16.8612392 C0.00723025726,16.7759765 0,16.6972488 0,16.6180556 C0,14.0675558 7.49941797,12 16.7504062,12 Z" id="Combined-Shape" fill="#000000" opacity="0.154278"></path>
                        <path d="M35.5,34.5004177 C35.5,37.2620917 28.0013944,39.5 18.7504062,39.5 C9.49941797,39.5 2,37.2620917 2,34.5004177 C2,31.7387436 9.49941797,29.5 18.7504062,29.5 C28.0013944,29.5 35.5,31.7387436 35.5,34.5004177" id="Fill-1" fill="#FF9E3C"></path>
                        <path d="M35.5,34.5004177 C35.5,37.2620917 28.0013944,39.5 18.7504062,39.5 C9.49941797,39.5 2,37.2620917 2,34.5004177 C2,31.7387436 9.49941797,29.5 18.7504062,29.5 C28.0013944,29.5 35.5,31.7387436 35.5,34.5004177 Z" id="Stroke-3" stroke="#000000" stroke-width="0.5"></path>
                        <polyline id="Fill-5" fill="#FF9E3C" points="35.5 34.5 35.5 26.5 2 26.5 2 34.5"></polyline>
                        <polyline id="Stroke-7" stroke="#000000" stroke-width="0.5" points="35.5 34.5 35.5 26.5 2 26.5 2 34.5"></polyline>
                        <path d="M35.5,26.5 C35.5,29.2614434 28.0013944,31.5 18.7504062,31.5 C9.49941797,31.5 2,29.2614434 2,26.5 C2,23.7385566 9.49941797,21.5 18.7504062,21.5 C28.0013944,21.5 35.5,23.7385566 35.5,26.5" id="Fill-9" fill="#FFD3A5"></path>
                        <path d="M35.5,26.5 C35.5,29.2614434 28.0013944,31.5 18.7504062,31.5 C9.49941797,31.5 2,29.2614434 2,26.5 C2,23.7385566 9.49941797,21.5 18.7504062,21.5 C28.0013944,21.5 35.5,23.7385566 35.5,26.5 Z" id="Stroke-11" stroke="#000000" stroke-width="0.5"></path>
                        <path d="M35.5,27.0004177 C35.5,29.7620917 28.0013944,32 18.7504062,32 C9.49941797,32 2,29.7620917 2,27.0004177 C2,24.2387436 9.49941797,22 18.7504062,22 C28.0013944,22 35.5,24.2387436 35.5,27.0004177" id="Fill-1" fill="#FF9E3C"></path>
                        <path d="M35.5,26.5004177 C35.5,29.2620917 28.0013944,31.5 18.7504062,31.5 C9.49941797,31.5 2,29.2620917 2,26.5004177 C2,23.7387436 9.49941797,21.5 18.7504062,21.5 C28.0013944,21.5 35.5,23.7387436 35.5,26.5004177 Z" id="Stroke-3" stroke="#000000" stroke-width="0.5"></path>
                        <polyline id="Fill-5" fill="#FF9E3C" points="35.5 26.5 35.5 18.5 2 18.5 2 26.5"></polyline>
                        <polyline id="Stroke-7" stroke="#000000" stroke-width="0.5" points="35.5 26.5 35.5 18.5 2 18.5 2 26.5"></polyline>
                        <path d="M35.5,18.5 C35.5,21.2614434 28.0013944,23.5 18.7504062,23.5 C9.49941797,23.5 2,21.2614434 2,18.5 C2,15.7385566 9.49941797,13.5 18.7504062,13.5 C28.0013944,13.5 35.5,15.7385566 35.5,18.5" id="Fill-9" fill="#FFD3A5"></path>
                        <path d="M35.5,18.5 C35.5,21.2614434 28.0013944,23.5 18.7504062,23.5 C9.49941797,23.5 2,21.2614434 2,18.5 C2,15.7385566 9.49941797,13.5 18.7504062,13.5 C28.0013944,13.5 35.5,15.7385566 35.5,18.5 Z" id="Stroke-11" stroke="#000000" stroke-width="0.5"></path>
                        <path d="M16.25,0 L16.25,9.5" id="Path-19" stroke="#000000" stroke-width="0.5"></path>
                        <path d="M24.25,3.25 L24.25,8" id="Path-19-Copy" stroke="#000000" stroke-width="0.5"></path>
                        <path d="M13.75,44.5 L13.75,50.5" id="Path-19-Copy-4" stroke="#000000" stroke-width="0.5"></path>
                        <path d="M13.75,43 L13.75,43.5" id="Path-19-Copy-10" stroke="#000000" stroke-width="0.5"></path>
                        <path d="M23.25,43 L23.25,51.5" id="Path-19-Copy-5" stroke="#000000" stroke-width="0.5"></path>
                        <path d="M30.25,41.5 L30.25,46" id="Path-19-Copy-7" stroke="#000000" stroke-width="0.5"></path>
                        <path d="M30.25,47 L30.25,48" id="Path-19-Copy-11" stroke="#000000" stroke-width="0.5"></path>
                        <path d="M5.75,42 L5.75,47.5" id="Path-19-Copy-6" stroke="#000000" stroke-width="0.5"></path>
                        <path d="M32.25,7.5 L32.25,12.5" id="Path-19-Copy-2" stroke="#000000" stroke-width="0.5"></path>
                        <path d="M32.25,5.5 L32.25,6" id="Path-19-Copy-9" stroke="#000000" stroke-width="0.5"></path>
                        <path d="M7.75,3.5 L7.75,8" id="Path-19-Copy-3" stroke="#000000" stroke-width="0.5"></path>
                        <path d="M7.75,9.5 L7.75,10.5" id="Path-19-Copy-8" stroke="#000000" stroke-width="0.5"></path>
                    </g>
                </g>
            </g>
        </g>
    </g>
</svg>