<?xml version="1.0" encoding="UTF-8"?>
<svg width="70px" height="70px" viewBox="0 0 70 70" version="1.1" xmlns="http://www.w3.org/2000/svg" xmlns:xlink="http://www.w3.org/1999/xlink">
    <!-- Generator: Sketch 58 (84663) - https://sketch.com -->
    <title>total-pool-weight-icon@1x</title>
    <desc>Created with Sketch.</desc>
    <g id="Sale-page" stroke="none" stroke-width="1" fill="none" fill-rule="evenodd">
        <g id="MoonBear-Staking-Platform---Stake" transform="translate(-1065.000000, -180.000000)">
            <g id="Pod-C" transform="translate(925.000000, 150.000000)">
                <g id="total-pool-weight-icon" transform="translate(140.000000, 30.000000)">
                    <circle id="Oval" fill="#FFF5D0" cx="35" cy="35" r="35"></circle>
                    <g id="Group-5" transform="translate(12.727273, 12.727273)">
                        <circle id="Oval" fill="#000000" opacity="0.154278" cx="21.175" cy="21.175" r="21.175"></circle>
                        <g id="Group-10" transform="translate(2.420000, 2.420000)" stroke="#000000" stroke-width="0.636363636">
                            <g id="Group-3" transform="translate(0.000000, 0.027951)" fill="#FEFAF1">
                                <path d="M16.4120141,28.4446909 L16.4109977,28.4444368 L11.6674589,20.2971014 L10.1161784,17.6324818 L11.975174,14.1680824 L15.5546807,15.3373235 L18.312555,16.2382351 L19.79129,15.4355332 L24.2983887,18.0951979 C24.6881781,17.5957643 25.2940796,17.2734385 25.9764651,17.2734385 C27.1524399,17.2734385 28.1058231,18.2266946 28.1058231,19.4027965 C28.1058231,19.7002205 28.044458,19.9832879 27.9341786,20.2405642 L35.9727591,24.9839759 C35.9727591,24.9839759 38.1568757,26.4839282 39.8998746,29.0679982 C40.9764963,26.5567279 41.5733772,23.7911035 41.5733772,20.8857241 C41.5733772,9.40561314 32.2668377,0.09907359 20.7867267,0.09907359 C9.30648873,0.09907359 -5.08199996e-05,9.40561314 -5.08199996e-05,20.8857241 C-5.08199996e-05,25.8498217 1.74104238,30.4064699 4.64451603,33.9810217 C7.66424043,30.8423785 11.7989556,28.7837873 16.4120141,28.4446909" id="Fill-1"></path>
                            </g>
                            <path d="M20.786714,41.700351 C29.3614456,41.700351 36.7227226,36.5078175 39.8998619,29.0959746 C38.156863,26.5119046 35.9727464,25.0119523 35.9727464,25.0119523 L27.9342929,20.2685406 C28.0444453,20.0112643 28.1058104,19.7281969 28.1058104,19.4306458 C28.1058104,18.254671 27.1524272,17.3014149 25.9764524,17.3014149 C25.2940669,17.3014149 24.6881654,17.6237407 24.298376,18.1230472 L19.7912773,15.4635096 L18.3125423,16.2662115 L15.554668,15.3652999 L11.9751613,14.1960588 L10.1161657,17.6604582 L11.6674462,20.3249508 L16.410985,28.4724132 L16.4120014,28.4726673 C11.79907,28.8117637 7.66435477,30.8702278 4.64450332,34.0089981 C8.45574922,38.7012087 14.2705736,41.700351 20.786714,41.700351" id="Fill-6" fill="#FF9E3C"></path>
                            <polygon id="Fill-8" fill="#F7D99C" points="21.8044481 9.12642076 18.9462042 7.92351136 21.8044481 6.72060196 23.0073575 3.86235811 24.2102669 6.72060196 27.0685107 7.92351136 24.2102669 9.12642076 23.0073575 11.9847917"></polygon>
                        </g>
                    </g>
                </g>
            </g>
        </g>
    </g>
</svg>