<?xml version="1.0" encoding="UTF-8"?>
<svg width="140px" height="140px" viewBox="0 0 140 140" version="1.1" xmlns="http://www.w3.org/2000/svg" xmlns:xlink="http://www.w3.org/1999/xlink">
    <!-- Generator: Sketch 58 (84663) - https://sketch.com -->
    <title>statistics-addresses-icon</title>
    <desc>Created with Sketch.</desc>
    <g id="Website-&amp;-App" stroke="none" stroke-width="1" fill="none" fill-rule="evenodd">
        <g id="MoonBear-Homepage" transform="translate(-886.000000, -4190.000000)">
            <g id="Statistics" transform="translate(165.000000, 4110.000000)">
                <g id="statistics-addresses-icon" transform="translate(721.000000, 80.000000)">
                    <circle id="Oval" fill="#F3F1EA" cx="70" cy="70" r="70"></circle>
                    <path d="M69.115,78 L69.115,87.8000009" id="Path-25" stroke="#000000"></path>
                    <polyline id="Path-26" stroke="#000000" points="90.33 90.7600009 69 101.128501 42.36 87.8000009"></polyline>
                    <polyline id="Path-26-Copy" stroke="#000000" points="90.33 61.7600009 69 72.1285009 42.36 58.8000009"></polyline>
                    <path d="M42.36,58.8000009 L63.33,47.8400009" id="Path-23" stroke="#000000"></path>
                    <circle id="Oval" stroke="#000000" fill="#3C5E5C" cx="69" cy="73" r="4.5"></circle>
                    <path d="M102.69,82.0050009 C104.94,79.6890009 104.91,75.9850009 102.62,73.7080009 C100.32,71.4310009 96.62,71.4310009 94.32,73.7080009 C92.02,75.9850009 91.99,79.6890009 94.25,82.0050009 C92.43,83.3310009 91.35,85.4370009 91.33,87.6860009 L91.33,90.6050009 C91.33,91.4850009 92.04,92.1980009 92.92,92.1980009 L103.96,92.1980009 C104.84,92.1980009 105.55,91.4850009 105.55,90.6050009 L105.55,87.6860009 C105.55,85.4460009 104.48,83.3420009 102.69,82.0050009 Z" id="Path" fill-opacity="0.15" fill="#000000"></path>
                    <path d="M100.36,84.3320009 C102.62,82.0160009 102.59,78.3120009 100.29,76.0350009 C97.99,73.7580009 94.29,73.7580009 91.99,76.0350009 C89.69,78.3120009 89.66,82.0160009 91.92,84.3320009 C90.1,85.6580009 89.02,87.7640009 89,90.0130009 L89,92.9330009 C89,93.8120009 89.71,94.5250009 90.59,94.5250009 L101.63,94.5250009 C102.51,94.5250009 103.23,93.8120009 103.23,92.9330009 L103.23,90.0130009 C103.22,87.7740009 102.16,85.6690009 100.36,84.3320009 Z" id="Path" stroke="#000000" fill="#FFD3A5"></path>
                    <path d="M102.69,53.0050009 C104.94,50.6890009 104.91,46.9850009 102.62,44.7080009 C100.32,42.4310009 96.62,42.4310009 94.32,44.7080009 C92.02,46.9850009 91.99,50.6890009 94.25,53.0050009 C92.43,54.3310009 91.35,56.4370009 91.33,58.6860009 L91.33,61.6050009 C91.33,62.4850009 92.04,63.1980009 92.92,63.1980009 L103.96,63.1980009 C104.84,63.1980009 105.55,62.4850009 105.55,61.6050009 L105.55,58.6860009 C105.55,56.4460009 104.48,54.3420009 102.69,53.0050009 Z" id="Path" fill-opacity="0.15" fill="#000000"></path>
                    <path d="M100.36,55.3320009 C102.62,53.0160009 102.59,49.3120009 100.29,47.0350009 C97.99,44.7580009 94.29,44.7580009 91.99,47.0350009 C89.69,49.3120009 89.66,53.0160009 91.92,55.3320009 C90.1,56.6580009 89.02,58.7640009 89,61.0130009 L89,63.9330009 C89,64.8120009 89.71,65.5250009 90.59,65.5250009 L101.63,65.5250009 C102.51,65.5250009 103.23,64.8120009 103.23,63.9330009 L103.23,61.0130009 C103.22,58.7740009 102.16,56.6690009 100.36,55.3320009 Z" id="Path" stroke="#000000" fill="#E1FFDC"></path>
                    <path d="M76.69,39.0050009 C78.94,36.6890009 78.91,32.9850009 76.62,30.7080009 C74.32,28.4310009 70.62,28.4310009 68.32,30.7080009 C66.02,32.9850009 65.99,36.6890009 68.25,39.0050009 C66.43,40.3310009 65.35,42.4370009 65.33,44.6860009 L65.33,47.6050009 C65.33,48.4850009 66.04,49.1980009 66.92,49.1980009 L77.96,49.1980009 C78.84,49.1980009 79.55,48.4850009 79.55,47.6050009 L79.55,44.6860009 C79.55,42.4460009 78.48,40.3420009 76.69,39.0050009 Z" id="Path" fill-opacity="0.15" fill="#000000"></path>
                    <path d="M74.36,41.3320009 C76.62,39.0160009 76.59,35.3120009 74.29,33.0350009 C71.99,30.7580009 68.29,30.7580009 65.99,33.0350009 C63.69,35.3120009 63.66,39.0160009 65.92,41.3320009 C64.1,42.6580009 63.02,44.7640009 63,47.0130009 L63,49.9330009 C63,50.8120009 63.71,51.5250009 64.59,51.5250009 L75.63,51.5250009 C76.51,51.5250009 77.23,50.8120009 77.23,49.9330009 L77.23,47.0130009 C77.22,44.7740009 76.16,42.6690009 74.36,41.3320009 Z" id="Path" stroke="#000000" fill="#FF9E3C"></path>
                    <path d="M49.69,52.0050009 C51.94,49.6890009 51.91,45.9850009 49.62,43.7080009 C47.32,41.4310009 43.615,41.4310009 41.318,43.7080009 C39.021,45.9850009 38.989,49.6890009 41.246,52.0050009 C39.43,53.3310009 38.347,55.4370009 38.327,57.6860009 L38.327,60.6050009 C38.327,61.4850009 39.04,62.1980009 39.919,62.1980009 L50.96,62.1980009 C51.84,62.1980009 52.55,61.4850009 52.55,60.6050009 L52.55,57.6860009 C52.55,55.4460009 51.48,53.3420009 49.69,52.0050009 Z" id="Path" fill-opacity="0.15" fill="#000000"></path>
                    <path d="M47.36,54.3320009 C49.62,52.0160009 49.59,48.3120009 47.29,46.0350009 C44.99,43.7580009 41.289,43.7580009 38.992,46.0350009 C36.694,48.3120009 36.662,52.0160009 38.92,54.3320009 C37.103,55.6580009 36.021,57.7640009 36,60.0130009 L36,62.9330009 C36,63.8120009 36.713,64.5250009 37.593,64.5250009 L48.63,64.5250009 C49.51,64.5250009 50.23,63.8120009 50.23,62.9330009 L50.23,60.0130009 C50.22,57.7740009 49.16,55.6690009 47.36,54.3320009 Z" id="Path" stroke="#000000" fill="#FFD3A5"></path>
                    <path d="M48.69,82.0050009 C50.94,79.6890009 50.91,75.9850009 48.62,73.7080009 C46.32,71.4310009 42.615,71.4310009 40.318,73.7080009 C38.021,75.9850009 37.989,79.6890009 40.246,82.0050009 C38.43,83.3310009 37.347,85.4370009 37.327,87.6860009 L37.327,90.6050009 C37.327,91.4850009 38.04,92.1980009 38.919,92.1980009 L49.96,92.1980009 C50.84,92.1980009 51.55,91.4850009 51.55,90.6050009 L51.55,87.6860009 C51.55,85.4460009 50.48,83.3420009 48.69,82.0050009 Z" id="Path" fill-opacity="0.15" fill="#000000"></path>
                    <path d="M46.36,84.3320009 C48.62,82.0160009 48.59,78.3120009 46.29,76.0350009 C43.992,73.7580009 40.289,73.7580009 37.992,76.0350009 C35.694,78.3120009 35.662,82.0160009 37.92,84.3320009 C36.103,85.6580009 35.021,87.7640009 35,90.0130009 L35,92.9330009 C35,93.8120009 35.713,94.5250009 36.593,94.5250009 L47.63,94.5250009 C48.51,94.5250009 49.23,93.8120009 49.23,92.9330009 L49.23,90.0130009 C49.22,87.7740009 48.16,85.6690009 46.36,84.3320009 Z" id="Path" stroke="#000000" fill="#E1FFDC"></path>
                    <path d="M75.69,94.0050009 C77.94,91.6890009 77.91,87.9850009 75.62,85.7080009 C73.32,83.4310009 69.62,83.4310009 67.32,85.7080009 C65.02,87.9850009 64.99,91.6890009 67.25,94.0050009 C65.43,95.3310009 64.35,97.4370009 64.33,99.6860009 L64.33,102.605001 C64.33,103.485001 65.04,104.198001 65.92,104.198001 L76.96,104.198001 C77.84,104.198001 78.55,103.485001 78.55,102.605001 L78.55,99.6860009 C78.55,97.4460009 77.48,95.3420009 75.69,94.0050009 Z" id="Path" fill-opacity="0.15" fill="#000000"></path>
                    <path d="M73.36,96.3320009 C75.62,94.0160009 75.59,90.3120009 73.29,88.0350009 C70.99,85.7580009 67.29,85.7580009 64.99,88.0350009 C62.69,90.3120009 62.66,94.0160009 64.92,96.3320009 C63.1,97.6580009 62.02,99.7640009 62,102.013001 L62,104.933001 C62,105.812001 62.71,106.525001 63.59,106.525001 L74.63,106.525001 C75.51,106.525001 76.23,105.812001 76.23,104.933001 L76.23,102.013001 C76.22,99.7740009 75.16,97.6690009 73.36,96.3320009 Z" id="Path" stroke="#000000" fill="#FF9E3C"></path>
                    <g id="Group-37" transform="translate(49.000000, 81.000000)">
                        <g id="Group-8" transform="translate(0.000000, 0.014300)"></g>
                    </g>
                </g>
            </g>
        </g>
    </g>
</svg>