<?xml version="1.0" encoding="UTF-8"?>
<svg width="140px" height="140px" viewBox="0 0 140 140" version="1.1" xmlns="http://www.w3.org/2000/svg" xmlns:xlink="http://www.w3.org/1999/xlink">
    <!-- Generator: Sketch 58 (84663) - https://sketch.com -->
    <title>statistics-exchanges-icon</title>
    <desc>Created with Sketch.</desc>
    <g id="Website-&amp;-App" stroke="none" stroke-width="1" fill="none" fill-rule="evenodd">
        <g id="MoonBear-Homepage" transform="translate(-1120.000000, -4190.000000)">
            <g id="Statistics" transform="translate(165.000000, 4110.000000)">
                <g id="statistics-exchanges-icon" transform="translate(955.000000, 80.000000)">
                    <circle id="Oval" fill="#F3F1EA" cx="70" cy="70" r="70"></circle>
                    <g id="Group-13" transform="translate(29.999950, 24.000000)">
                        <polyline id="Path" stroke="#000000" points="22.0594563 77 23.0000504 74.0048432 21.0000504 72"></polyline>
                        <path d="M23.0000504,74.3380615 C23.0000504,74.3380615 12.4925063,77.544329 5.27960089,69.8438163 C-1.93330452,62.1444929 -0.886080079,50.5289087 3.24398485,45" id="Path" stroke="#000000"></path>
                        <polyline id="Path" stroke="#000000" points="57.8599538 12 57.0000504 15.0565553 59.0000504 17"></polyline>
                        <path d="M57.0000504,14.8400417 C57.0000504,14.8400417 67.615394,11.2671683 75.1960688,18.8583173 C82.7767435,26.4494663 82.0570592,38.2652967 78.0148323,44" id="Path" stroke="#000000"></path>
                        <circle id="Oval" fill="#000000" fill-rule="nonzero" opacity="0.154278" cx="26.0000504" cy="21" r="21"></circle>
                        <circle id="Oval" fill="#000000" fill-rule="nonzero" opacity="0.154278" cx="55.0000504" cy="69" r="21"></circle>
                        <path d="M73.0000504,71.5 C73.0000504,82.8063529 63.6160504,92 52.0000504,92 C40.3840504,92 31.0000504,82.8063529 31.0000504,71.5 C31.0000504,60.1936471 40.3840504,51 52.0000504,51 C63.6160504,51 73.0000504,60.1936471 73.0000504,71.5 Z" id="Path" stroke="#000000" fill="#E1FFDC" fill-rule="nonzero"></path>
                        <path d="M47.0760504,69.094 L52.2000504,63.9664 L57.3240504,69.0952 L60.3120504,66.112 L52.2000504,58 L44.0880504,66.1096 L47.0760504,69.0928 L47.0760504,69.094 Z M39.0000504,71.2 L41.9880504,68.2168 L44.9640504,71.1988 L41.9760504,74.1832 L39.0000504,71.2 Z M47.0760504,73.3072 L52.2000504,78.4336 L57.3240504,73.3048 L60.3120504,76.2856 L60.3120504,76.288 L52.2000504,84.4 L44.0880504,76.2904 L44.0880504,76.2856 L47.0760504,73.306 L47.0760504,73.3072 Z M59.4360504,71.2012 L62.4120504,68.218 L65.4000504,71.2012 L62.4120504,74.1844 L59.4360504,71.2012 Z" id="Shape" fill="#3C5E5C" fill-rule="nonzero"></path>
                        <polyline id="Path" fill="#3C5E5C" fill-rule="nonzero" points="55.2240504 71.1988 55.2240504 71.1988 52.2000504 68.1712 49.9560504 70.408 49.7040504 70.6648 49.1760504 71.1952 49.1760504 71.2 49.1760504 71.2036 52.2000504 74.2288 55.2240504 71.2012 55.2240504 71.2 55.2240504 71.1988"></polyline>
                        <path d="M19.276428,31.2373308 L19.27542,31.2370788 L14.571084,23.1570768 L13.032624,20.5144788 L14.876256,17.0787108 L18.42618,18.2382888 L21.161262,19.1317548 L22.627776,18.3356868 L27.097626,20.9733708 C27.484194,20.4780648 28.085088,20.1584028 28.761834,20.1584028 C29.92809,20.1584028 30.873594,21.1037808 30.873594,22.2701628 C30.873594,22.5651288 30.812736,22.8458568 30.703368,23.1010068 L38.675514,27.8052168 C38.675514,27.8052168 40.84158,29.2927728 42.570174,31.8554868 C43.637898,29.3649708 44.229846,26.6222028 44.229846,23.7408348 C44.229846,12.3556008 35.00022,3.1259748 23.614986,3.1259748 C12.229626,3.1259748 3,12.3556008 3,23.7408348 C3,28.6639068 4.726704,33.1828968 7.606182,36.7279068 C10.60095,33.6152028 14.701494,31.5736248 19.276428,31.2373308" id="Fill-1" stroke="#000000" fill="#FEFAF1"></path>
                        <path d="M23.6149734,44.35572 C32.1188394,44.35572 39.4192794,39.2061 42.5701614,31.855512 C40.8415674,29.292798 38.6755014,27.805242 38.6755014,27.805242 L30.7034814,23.101032 C30.8127234,22.845882 30.8735814,22.565154 30.8735814,22.270062 C30.8735814,21.103806 29.9280774,20.158428 28.7618214,20.158428 C28.0850754,20.158428 27.4841814,20.47809 27.0976134,20.97327 L22.6277634,18.335712 L21.1612494,19.13178 L18.4261674,18.238314 L14.8762434,17.078736 L13.0326114,20.514504 L14.5710714,23.156976 L19.2754074,31.237104 L19.2764154,31.237356 C14.7016074,31.57365 10.6010634,33.615102 7.6061694,36.727932 C11.3859174,41.381364 17.1526854,44.35572 23.6149734,44.35572" id="Fill-6" stroke="#000000" fill="#FF9E3C"></path>
                        <polygon id="Fill-8" stroke="#000000" fill="#F7D99C" points="24.6242964 12.0509958 21.7896744 10.8580278 24.6242964 9.6650598 25.8172644 6.8304378 27.0102324 9.6650598 29.8448544 10.8580278 27.0102324 12.0509958 25.8172644 14.8857438"></polygon>
                    </g>
                </g>
            </g>
        </g>
    </g>
</svg>