<?xml version="1.0" encoding="UTF-8"?>
<svg width="140px" height="140px" viewBox="0 0 140 140" version="1.1" xmlns="http://www.w3.org/2000/svg" xmlns:xlink="http://www.w3.org/1999/xlink">
    <!-- Generator: Sketch 58 (84663) - https://sketch.com -->
    <title>statistics-price-cion</title>
    <desc>Created with Sketch.</desc>
    <g id="Website-&amp;-App" stroke="none" stroke-width="1" fill="none" fill-rule="evenodd">
        <g id="MoonBear-Homepage" transform="translate(-181.000000, -4190.000000)">
            <g id="Statistics" transform="translate(165.000000, 4110.000000)">
                <g id="statistics-price-cion" transform="translate(16.000000, 80.000000)">
                    <circle id="Oval" fill="#F3F1EA" cx="70" cy="70" r="70"></circle>
                    <polygon id="Rectangle-Copy-4" fill="#000000" opacity="0.154278" points="70 24 103 24 93.0858459 35.5 103 47 70 47"></polygon>
                    <path d="M68.5,26.5 L68.5,48.5 L99.9087951,48.5 L90.4256912,37.5 L99.9087951,26.5 L68.5,26.5 Z" id="Rectangle" stroke="#000000" fill="#FF9E3C"></path>
                    <path d="M83.2985977,35.1993271 C83.4648351,35.1993271 83.5997781,35.0694931 83.5997781,34.9092068 L83.5997781,34.3318467 C83.5997781,32.6779549 82.2798668,31.3166526 80.6010694,31.1695348 L80.6010694,30.2901204 C80.6010694,30.129834 80.4663483,30 80.299889,30 C80.1334297,30 79.9987087,30.129834 79.9987087,30.2901204 L79.9987087,31.1695348 C78.3199112,31.3166526 77,32.6779549 77,34.3318467 C77,36.0836798 78.480378,37.5089732 80.299889,37.5089732 C81.7871473,37.5089732 82.9971954,38.6739814 82.9971954,40.1058591 C82.9971954,41.5377368 81.7871473,42.7027449 80.299889,42.7027449 C78.8124088,42.7027449 77.6025826,41.5377368 77.6025826,40.1058591 L77.6025826,39.5282932 C77.6025826,39.3684184 77.4676396,39.2381729 77.3014023,39.2381729 C77.134943,39.2381729 77.0002219,39.3684184 77.0002219,39.5282932 L77.0002219,40.1058591 C77.0002219,41.7595451 78.3201332,43.1206416 79.9989306,43.2677594 L79.9989306,44.1473796 C79.9989306,44.3072545 80.1336517,44.4375 80.300111,44.4375 C80.4665703,44.4375 80.6012913,44.3072545 80.6012913,44.1473796 L80.6012913,43.2677594 C82.2798668,43.1206416 83.6,41.7595451 83.6,40.1058591 C83.6,38.3540259 82.119622,36.9289383 80.300111,36.9289383 C78.8126307,36.9289383 77.6028046,35.7639302 77.6028046,34.3318467 C77.6028046,32.8997632 78.8124088,31.7349609 80.299889,31.7349609 C81.7871473,31.7349609 82.9971954,32.899969 82.9971954,34.3318467 L82.9971954,34.9092068 C82.9971954,35.0694931 83.1323604,35.1993271 83.2985977,35.1993271 Z" id="Path" stroke="#000000" stroke-width="0.5" fill="#000000" fill-rule="nonzero"></path>
                    <g id="Group-4" transform="translate(28.000000, 70.000000)">
                        <polyline id="Path-24-Copy" fill="#000000" opacity="0.154278" points="3.5409584 27.36 3.5409584 40.1061859 84.24 40.1061859 84.24 27.36"></polyline>
                        <polygon id="Rectangle-Copy-5" fill="#000000" opacity="0.154278" points="12.68 0 74.24 0 84.24 27.36 2.68 27.36"></polygon>
                        <path d="M10.3496019,2.5 L0.715099013,28.86 L80.844901,28.86 L71.2103981,2.5 L10.3496019,2.5 Z" id="Rectangle" stroke="#000000" fill="#3C5E5C"></path>
                        <path d="M58.255925,15.11803 C58.255925,17.94466 50.364275,20.23606 40.62839,20.23606 C30.892505,20.23606 23,17.94466 23,15.11803 C23,12.2914 30.892505,10 40.62839,10 C50.364275,10 58.255925,12.2914 58.255925,15.11803 Z" id="Stroke-35" fill="#E1FFDC"></path>
                        <polyline id="Path-24" stroke="#000000" fill="#E1FFDC" points="0.540958405 29.36 0.540958405 42.1061859 81.0678482 42.1061859 81.0678482 29.36"></polyline>
                    </g>
                    <path d="M68.5,84.7141266 L68.5,23.3959503" id="Path-2" stroke="#000000"></path>
                </g>
            </g>
        </g>
    </g>
</svg>