<?xml version="1.0" encoding="UTF-8"?>
<svg width="140px" height="140px" viewBox="0 0 140 140" version="1.1" xmlns="http://www.w3.org/2000/svg" xmlns:xlink="http://www.w3.org/1999/xlink">
    <!-- Generator: Sketch 58 (84663) - https://sketch.com -->
    <title>statistics-staked-icon</title>
    <desc>Created with Sketch.</desc>
    <g id="Website-&amp;-App" stroke="none" stroke-width="1" fill="none" fill-rule="evenodd">
        <g id="MoonBear-Homepage" transform="translate(-651.000000, -4190.000000)">
            <g id="Statistics" transform="translate(165.000000, 4110.000000)">
                <g id="statistics-staked-icon" transform="translate(486.000000, 80.000000)">
                    <circle id="Oval" fill="#F3F1EA" cx="70" cy="70" r="70"></circle>
                    <path d="M71.5004972,44 C72.1775439,44 72.8469215,44.0096058 73.5071261,44.0283771 C73.6355415,44.032028 73.7637289,44.0360298 73.8915574,44.0403757 C73.9954298,44.0439078 74.09868,44.0476522 74.2016891,44.0516205 C74.426871,44.0602951 74.6509687,44.0700427 74.8738523,44.0808426 C74.9207351,44.0831141 74.967822,44.0854452 75.014854,44.0878233 C75.5939305,44.1171031 76.1646203,44.1534883 76.725903,44.196664 C76.8888229,44.2091966 77.0508513,44.2222929 77.2120615,44.2359529 C77.2398031,44.2383035 77.2677688,44.2406921 77.2957096,44.2430976 C77.3994018,44.2520256 77.5024017,44.261155 77.6050552,44.2705143 C77.6332233,44.2730824 77.6615058,44.2756808 77.6897617,44.2782966 C77.7609881,44.2848905 77.8320429,44.2915949 77.9029272,44.2984094 C77.9723316,44.3050816 78.0415729,44.3118594 78.1106484,44.318742 C78.1527454,44.3229365 78.1947811,44.3271701 78.2367546,44.3314424 C78.3171412,44.3396249 78.3970899,44.3479275 78.4768086,44.3563707 C78.8998065,44.4011676 79.3168065,44.4499839 79.7267922,44.5026139 C80.0739636,44.5471806 80.4160716,44.594477 80.752833,44.6444144 C80.8037551,44.6519656 80.8544591,44.6595627 80.9050402,44.6672196 C80.9592423,44.6754245 81.013465,44.6837231 81.0675444,44.6920904 C81.1105836,44.6987496 81.1535177,44.70545 81.1963604,44.7121938 C81.397892,44.743918 81.5970024,44.7765324 81.7940278,44.8100805 C81.9666815,44.8394782 82.1378456,44.8696131 82.3073588,44.900452 C82.3677842,44.9114449 82.4280279,44.9225324 82.4880594,44.9337088 C82.6577511,44.9653012 82.8257975,44.9976137 82.9920992,45.0306225 C83.0508453,45.0422822 83.1098461,45.0541246 83.1686234,45.0660547 C83.1996107,45.0723442 83.2306179,45.0786749 83.2615624,45.0850299 C83.4369806,45.1210569 83.6101116,45.1578087 83.781173,45.1953248 C83.9630516,45.2352129 84.142656,45.2759805 84.3198479,45.317592 C84.5651855,45.3752066 84.8058995,45.4344394 85.0417995,45.4952346 C85.1823536,45.5314572 85.3213073,45.568264 85.4585093,45.6056146 C85.6088216,45.6465378 85.7563899,45.6879284 85.9018219,45.7299509 C85.954986,45.745314 86.0072574,45.7605821 86.0592474,45.7759321 C86.2936024,45.8451211 86.5226229,45.9160965 86.7456805,45.9886732 C86.8007454,46.0065907 86.8551203,46.0244969 86.9091328,46.0424985 C86.9349898,46.0511155 86.9613401,46.0599488 86.9876031,46.0688047 C87.2150483,46.1455079 87.4352953,46.2236719 87.6487895,46.3034583 C87.7938963,46.3576902 87.9355536,46.4125393 88.0740275,46.4681113 C88.4965387,46.6376636 88.8896744,46.8140769 89.2508987,46.996576 C89.2764571,47.0094885 89.3019407,47.022475 89.3272626,47.035492 C89.3603084,47.0524802 89.3929235,47.0694385 89.4252642,47.0864476 C89.5304854,47.1417862 89.6328628,47.1976975 89.7322715,47.2541298 C89.9453522,47.3750852 90.1449644,47.4985491 90.3303171,47.6242366 C90.3518636,47.6388452 90.3736216,47.6537641 90.3951785,47.6687139 C90.4282183,47.6916307 90.4603371,47.714298 90.4919932,47.7370349 C90.6692198,47.8643089 90.8322772,47.9940588 90.9801645,48.1258228 C91.005187,48.1481181 91.0297043,48.1704053 91.0537869,48.192749 C91.1467341,48.278976 91.2333651,48.3662173 91.313329,48.454254 C91.3344481,48.4775073 91.3549892,48.5006855 91.3750672,48.5239176 L91.3893916,48.5405934 C91.5071096,48.6784767 91.6085295,48.8182495 91.6930177,48.9597265 C91.7422153,49.0420996 91.7857244,49.1251641 91.8233524,49.208771 C91.8758818,49.3254451 91.91703,49.4434642 91.9463256,49.5624446 C91.9717578,49.6657261 91.9882615,49.7697676 91.9956028,49.8744679 L92,50 L92,60.0005012 C92,63.3145101 82.8226022,66 71.5004972,66 C60.1783921,66 51,63.3145101 51,60.0005012 L51,50 C51,46.686268 60.1783921,44 71.5004972,44 Z" id="Combined-Shape" fill="#000000" opacity="0.154278"></path>
                    <path d="M71.5004972,78 C72.1775439,78 72.8469215,78.0096058 73.5071261,78.0283771 C73.6355415,78.032028 73.7637289,78.0360298 73.8915574,78.0403757 C73.9954298,78.0439078 74.09868,78.0476522 74.2016891,78.0516205 C74.426871,78.0602951 74.6509687,78.0700427 74.8738523,78.0808426 C74.9207351,78.0831141 74.967822,78.0854452 75.014854,78.0878233 C75.5939305,78.1171031 76.1646203,78.1534883 76.725903,78.196664 C76.8888229,78.2091966 77.0508513,78.2222929 77.2120615,78.2359529 C77.2398031,78.2383035 77.2677688,78.2406921 77.2957096,78.2430976 C77.3994018,78.2520256 77.5024017,78.261155 77.6050552,78.2705143 C77.6332233,78.2730824 77.6615058,78.2756808 77.6897617,78.2782966 C77.7609881,78.2848905 77.8320429,78.2915949 77.9029272,78.2984094 C77.9723316,78.3050816 78.0415729,78.3118594 78.1106484,78.318742 C78.1527454,78.3229365 78.1947811,78.3271701 78.2367546,78.3314424 C78.3171412,78.3396249 78.3970899,78.3479275 78.4768086,78.3563707 C78.8998065,78.4011676 79.3168065,78.4499839 79.7267922,78.5026139 C80.0739636,78.5471806 80.4160716,78.594477 80.752833,78.6444144 C80.8037551,78.6519656 80.8544591,78.6595627 80.9050402,78.6672196 C80.9592423,78.6754245 81.013465,78.6837231 81.0675444,78.6920904 C81.1105836,78.6987496 81.1535177,78.70545 81.1963604,78.7121938 C81.397892,78.743918 81.5970024,78.7765324 81.7940278,78.8100805 C81.9666815,78.8394782 82.1378456,78.8696131 82.3073588,78.900452 C82.3677842,78.9114449 82.4280279,78.9225324 82.4880594,78.9337088 C82.6577511,78.9653012 82.8257975,78.9976137 82.9920992,79.0306225 C83.0508453,79.0422822 83.1098461,79.0541246 83.1686234,79.0660547 C83.1996107,79.0723442 83.2306179,79.0786749 83.2615624,79.0850299 C83.4369806,79.1210569 83.6101116,79.1578087 83.781173,79.1953248 C83.9630516,79.2352129 84.142656,79.2759805 84.3198479,79.317592 C84.5651855,79.3752066 84.8058995,79.4344394 85.0417995,79.4952346 C85.1823536,79.5314572 85.3213073,79.568264 85.4585093,79.6056146 C85.6088216,79.6465378 85.7563899,79.6879284 85.9018219,79.7299509 C85.954986,79.745314 86.0072574,79.7605821 86.0592474,79.7759321 C86.2936024,79.8451211 86.5226229,79.9160965 86.7456805,79.9886732 C86.8007454,80.0065907 86.8551203,80.0244969 86.9091328,80.0424985 C86.9349898,80.0511155 86.9613401,80.0599488 86.9876031,80.0688047 C87.2150483,80.1455079 87.4352953,80.2236719 87.6487895,80.3034583 C87.7938963,80.3576902 87.9355536,80.4125393 88.0740275,80.4681113 C88.4965387,80.6376636 88.8896744,80.8140769 89.2508987,80.996576 C89.2764571,81.0094885 89.3019407,81.022475 89.3272626,81.035492 C89.3603084,81.0524802 89.3929235,81.0694385 89.4252642,81.0864476 C89.5304854,81.1417862 89.6328628,81.1976975 89.7322715,81.2541298 C89.9453522,81.3750852 90.1449644,81.4985491 90.3303171,81.6242366 C90.3518636,81.6388452 90.3736216,81.6537641 90.3951785,81.6687139 C90.4282183,81.6916307 90.4603371,81.714298 90.4919932,81.7370349 C90.6692198,81.8643089 90.8322772,81.9940588 90.9801645,82.1258228 C91.005187,82.1481181 91.0297043,82.1704053 91.0537869,82.192749 C91.1467341,82.278976 91.2333651,82.3662173 91.313329,82.454254 C91.3344481,82.4775073 91.3549892,82.5006855 91.3750672,82.5239176 L91.3893916,82.5405934 C91.5071096,82.6784767 91.6085295,82.8182495 91.6930177,82.9597265 C91.7422153,83.0420996 91.7857244,83.1251641 91.8233524,83.208771 C91.8758818,83.3254451 91.91703,83.4434642 91.9463256,83.5624446 C91.9717578,83.6657261 91.9882615,83.7697676 91.9956028,83.8744679 L92,84 L92,94.0005012 C92,97.3145101 82.8226022,100 71.5004972,100 C60.1783921,100 51,97.3145101 51,94.0005012 L51,84 C51,80.686268 60.1783921,78 71.5004972,78 Z" id="Combined-Shape-Copy" fill="#000000" opacity="0.154278"></path>
                    <g id="Group-37" transform="translate(48.000000, 46.000000)">
                        <g id="Group" transform="translate(0.499900, 34.493500)">
                            <path d="M41.235,16.0353 C41.235,19.3413 32.005,22.0203 20.618,22.0203 C9.231,22.0203 0,19.3413 0,16.0353 C0,12.7293 9.231,10.0493 20.618,10.0493 C32.005,10.0493 41.235,12.7293 41.235,16.0353" id="Fill-1" fill="#FF9E3C"></path>
                            <path d="M41.235,16.0353 C41.235,19.3413 32.005,22.0203 20.618,22.0203 C9.231,22.0203 2.91322522e-13,19.3413 2.91322522e-13,16.0353 C2.91322522e-13,12.7293 9.231,10.0493 20.618,10.0493 C32.005,10.0493 41.235,12.7293 41.235,16.0353 Z" id="Stroke-3" stroke="#000000"></path>
                            <polyline id="Fill-5" fill="#FF9E3C" points="41.2355 16.0353 41.2355 6.0143 0.0005 6.0143 0.0005 16.0353"></polyline>
                            <polyline id="Stroke-7" stroke="#000000" points="41.2355 16.0353 41.2355 6.0143 0.0005 6.0143 0.0005 16.0353"></polyline>
                            <path d="M41.235,6.0138 C41.235,9.3198 32.005,11.9998 20.618,11.9998 C9.231,11.9998 2.91322522e-13,9.3198 2.91322522e-13,6.0138 C2.91322522e-13,2.7078 9.231,0.0278 20.618,0.0278 C32.005,0.0278 41.235,2.7078 41.235,6.0138" id="Fill-9" fill="#FFD3A5"></path>
                            <path d="M41.235,6.0138 C41.235,9.3198 32.005,11.9998 20.618,11.9998 C9.231,11.9998 2.91322522e-13,9.3198 2.91322522e-13,6.0138 C2.91322522e-13,2.7078 9.231,0.0278 20.618,0.0278 C32.005,0.0278 41.235,2.7078 41.235,6.0138 Z" id="Stroke-11" stroke="#000000"></path>
                        </g>
                        <g id="Group-8" transform="translate(1.000000, 35.014300)"></g>
                        <path d="M41.7349,33.5288 C41.7349,36.8348 32.5049,39.5138 21.1179,39.5138 C9.7309,39.5138 0.4999,36.8348 0.4999,33.5288 C0.4999,30.2228 9.7309,27.5428 21.1179,27.5428 C32.5049,27.5428 41.7349,30.2228 41.7349,33.5288" id="Fill-13" fill="#3C5E5C"></path>
                        <path d="M41.7349,33.5288 C41.7349,36.8348 32.5049,39.5138 21.1179,39.5138 C9.7309,39.5138 0.4999,36.8348 0.4999,33.5288 C0.4999,30.2228 9.7309,27.5428 21.1179,27.5428 C32.5049,27.5428 41.7349,30.2228 41.7349,33.5288 Z" id="Stroke-15" stroke="#000000"></path>
                        <g id="Group-20" transform="translate(0.000000, 23.014300)">
                            <polyline id="Fill-17" fill="#3C5E5C" points="41.7354 10.5145 41.7354 0.4935 0.5004 0.4935 0.5004 10.5145"></polyline>
                            <polyline id="Stroke-19" stroke="#000000" points="41.7354 10.5145 41.7354 0.4935 0.5004 0.4935 0.5004 10.5145"></polyline>
                        </g>
                        <path d="M41.7349,23.5073 C41.7349,26.8133 32.5049,29.4933 21.1179,29.4933 C9.7309,29.4933 0.4999,26.8133 0.4999,23.5073 C0.4999,20.2013 9.7309,17.5213 21.1179,17.5213 C32.5049,17.5213 41.7349,20.2013 41.7349,23.5073" id="Fill-21" fill="#E1FFDC"></path>
                        <path d="M41.7349,23.5073 C41.7349,26.8133 32.5049,29.4933 21.1179,29.4933 C9.7309,29.4933 0.4999,26.8133 0.4999,23.5073 C0.4999,20.2013 9.7309,17.5213 21.1179,17.5213 C32.5049,17.5213 41.7349,20.2013 41.7349,23.5073 Z" id="Stroke-23" stroke="#000000"></path>
                        <path d="M41.7349,16.5073 C41.7349,19.8133 32.5049,22.4933 21.1179,22.4933 C9.7309,22.4933 0.4999,19.8133 0.4999,16.5073 C0.4999,13.2013 9.7309,10.5213 21.1179,10.5213 C32.5049,10.5213 41.7349,13.2013 41.7349,16.5073" id="Fill-25" fill="#FF9E3C"></path>
                        <path d="M41.7349,16.5073 C41.7349,19.8133 32.5049,22.4933 21.1179,22.4933 C9.7309,22.4933 0.4999,19.8133 0.4999,16.5073 C0.4999,13.2013 9.7309,10.5213 21.1179,10.5213 C32.5049,10.5213 41.7349,13.2013 41.7349,16.5073 Z" id="Stroke-27" stroke="#000000"></path>
                        <g id="Group-32" transform="translate(0.000000, 6.014300)">
                            <polyline id="Fill-29" fill="#FF9E3C" points="41.7354 10.493 41.7354 0.472 0.5004 0.472 0.5004 10.493"></polyline>
                            <polyline id="Stroke-31" stroke="#000000" points="41.7354 10.493 41.7354 0.472 0.5004 0.472 0.5004 10.493"></polyline>
                        </g>
                        <path d="M41.7349,6.4858 C41.7349,9.7918 32.5049,12.4718 21.1179,12.4718 C9.7309,12.4718 0.4999,9.7918 0.4999,6.4858 C0.4999,3.1798 9.7309,0.4998 21.1179,0.4998 C32.5049,0.4998 41.7349,3.1798 41.7349,6.4858" id="Fill-33" fill="#FFD3A5"></path>
                        <path d="M41.7349,6.4858 C41.7349,9.7918 32.5049,12.4718 21.1179,12.4718 C9.7309,12.4718 0.4999,9.7918 0.4999,6.4858 C0.4999,3.1798 9.7309,0.4998 21.1179,0.4998 C32.5049,0.4998 41.7349,3.1798 41.7349,6.4858 Z" id="Stroke-35" stroke="#000000"></path>
                    </g>
                    <path d="M69.1179,27.5182495 L69.1179,52.9499893" id="Path-3" stroke="#000000"></path>
                    <polyline id="Path-4" stroke="#000000" transform="translate(69.196053, 49.741035) rotate(-45.000000) translate(-69.196053, -49.741035) " points="66.3848877 46.9602966 66.3848877 52.5217743 72.0072174 52.5217743"></polyline>
                </g>
            </g>
        </g>
    </g>
</svg>